<svg xmlns="http://www.w3.org/2000/svg" viewBox="0 0 400 500">
  <!-- scattered petals: 5-petal flower shape -->
  <g fill="#f0d0d5" opacity="0.4">
    <circle cx="60" cy="100" r="5"/><circle cx="55" cy="97" r="3.5"/><circle cx="65" cy="97" r="3.5"/><circle cx="58" cy="103" r="3.5"/><circle cx="62" cy="103" r="3.5"/><circle cx="60" cy="100" r="1.5" fill="#e8a0a8"/>
  </g>
  <g fill="#f0d0d5" opacity="0.35">
    <circle cx="200" cy="180" r="4.5"/><circle cx="195" cy="177" r="3.2"/><circle cx="205" cy="177" r="3.2"/><circle cx="198" cy="183" r="3.2"/><circle cx="202" cy="183" r="3.2"/><circle cx="200" cy="180" r="1.3" fill="#e8a0a8"/>
  </g>
  <g fill="#f0d0d5" opacity="0.3">
    <circle cx="120" cy="300" r="4"/><circle cx="116" cy="297" r="2.8"/><circle cx="124" cy="297" r="2.8"/><circle cx="118" cy="303" r="2.8"/><circle cx="122" cy="303" r="2.8"/><circle cx="120" cy="300" r="1.2" fill="#e8a0a8"/>
  </g>
  <g fill="#f0d0d5" opacity="0.28">
    <circle cx="300" cy="120" r="4.5"/><circle cx="295" cy="117" r="3.2"/><circle cx="305" cy="117" r="3.2"/><circle cx="298" cy="123" r="3.2"/><circle cx="302" cy="123" r="3.2"/><circle cx="300" cy="120" r="1.3" fill="#e8a0a8"/>
  </g>
  <g fill="#f0d0d5" opacity="0.25">
    <circle cx="80" cy="380" r="3.5"/><circle cx="76" cy="377" r="2.5"/><circle cx="84" cy="377" r="2.5"/><circle cx="78" cy="383" r="2.5"/><circle cx="82" cy="383" r="2.5"/><circle cx="80" cy="380" r="1" fill="#e8a0a8"/>
  </g>
  <g fill="#f0d0d5" opacity="0.3">
    <circle cx="250" cy="350" r="4"/><circle cx="246" cy="347" r="2.8"/><circle cx="254" cy="347" r="2.8"/><circle cx="248" cy="353" r="2.8"/><circle cx="252" cy="353" r="2.8"/><circle cx="250" cy="350" r="1.2" fill="#e8a0a8"/>
  </g>
  <g fill="#f0d0d5" opacity="0.2">
    <circle cx="180" cy="80" r="3"/><circle cx="177" cy="78" r="2"/><circle cx="183" cy="78" r="2"/><circle cx="180" cy="84" r="2"/><circle cx="180" cy="80" r="1" fill="#e8a0a8"/>
  </g>
  <!-- floating single petals -->
  <circle cx="150" cy="200" r="2.5" fill="#f0d0d5" opacity="0.2"/>
  <circle cx="280" cy="250" r="2" fill="#f0d0d5" opacity="0.18"/>
  <circle cx="50" cy="250" r="2" fill="#f0d0d5" opacity="0.15"/>
  <circle cx="320" cy="300" r="2.5" fill="#f0d0d5" opacity="0.22"/>
  <circle cx="100" cy="150" r="1.8" fill="#f0d0d5" opacity="0.16"/>
  <circle cx="350" cy="180" r="2" fill="#f0d0d5" opacity="0.18"/>
</svg>
