<svg xmlns="http://www.w3.org/2000/svg" viewBox="0 0 240 220">
  <path d="M30 190c10-18 25-30 45-28 11 1 20 10 24 20" stroke="#5a8a6a" stroke-width="2.2" fill="none"/>
  <path d="M30 170c8-12 20-22 38-22 14 1 24 10 30 22" stroke="#6a9a7a" stroke-width="1.8" fill="none"/>
  <path d="M20 150c12-8 28-14 45-10 12 3 20 12 25 24" stroke="#5a8a6a" stroke-width="1.5" fill="none"/>
  <!-- flowers -->
  <circle cx="40" cy="175" r="5" fill="#f0d0d5" opacity="0.7"/><circle cx="36" cy="173" r="4.5" fill="#f5dde0" opacity="0.6"/><circle cx="38" cy="178" r="4" fill="#f0d0d5" opacity="0.65"/><circle cx="43" cy="177" r="4" fill="#f5dde0" opacity="0.6"/><circle cx="41" cy="172" r="3.5" fill="#f8e5e8" opacity="0.7"/><circle cx="40" cy="175" r="1.8" fill="#e8a0a8" opacity="0.8"/>
  <circle cx="55" cy="185" r="4.5" fill="#f0d0d5" opacity="0.65"/><circle cx="51" cy="183" r="4" fill="#f5dde0" opacity="0.55"/><circle cx="53" cy="188" r="4" fill="#f0d0d5" opacity="0.6"/><circle cx="57" cy="186" r="3.5" fill="#f5dde0" opacity="0.5"/><circle cx="55" cy="182" r="3" fill="#f8e5e8" opacity="0.6"/><circle cx="54" cy="185" r="1.5" fill="#e8a0a8" opacity="0.7"/>
  <circle cx="25" cy="160" r="4" fill="#f0d0d5" opacity="0.6"/><circle cx="21" cy="158" r="3.5" fill="#f5dde0" opacity="0.5"/><circle cx="23" cy="163" r="3.5" fill="#f0d0d5" opacity="0.55"/><circle cx="27" cy="161" r="3" fill="#f5dde0" opacity="0.45"/><circle cx="24" cy="157" r="2.5" fill="#f8e5e8" opacity="0.55"/><circle cx="25" cy="160" r="1.3" fill="#e8a0a8" opacity="0.65"/>
  <circle cx="18" cy="145" r="3.5" fill="#f0d0d5" opacity="0.5"/><circle cx="15" cy="143" r="3" fill="#f5dde0" opacity="0.45"/>
  <circle cx="48" cy="195" r="3" fill="#f0c0c8" opacity="0.5"/>
  <circle cx="60" cy="178" r="2.5" fill="#f0c0c8" opacity="0.45"/>
  <circle cx="35" cy="165" r="2" fill="#f5d0d8" opacity="0.35"/>
</svg>
